<svg width="512" height="512" viewBox="0 0 512 512" fill="none" xmlns="http://www.w3.org/2000/svg">
  <defs>
    <linearGradient id="bg" x1="74" y1="48" x2="438" y2="472" gradientUnits="userSpaceOnUse">
      <stop stop-color="#0D1722"/>
      <stop offset="0.48" stop-color="#05070D"/>
      <stop offset="1" stop-color="#0B1018"/>
    </linearGradient>
    <linearGradient id="stroke" x1="96" y1="112" x2="430" y2="404" gradientUnits="userSpaceOnUse">
      <stop stop-color="#FFFFFF"/>
      <stop offset="0.55" stop-color="#E7F7FF"/>
      <stop offset="1" stop-color="#B8C7D6"/>
    </linearGradient>
    <linearGradient id="edge" x1="58" y1="40" x2="458" y2="472" gradientUnits="userSpaceOnUse">
      <stop stop-color="#67E8F9" stop-opacity="0.7"/>
      <stop offset="0.42" stop-color="#67E8F9" stop-opacity="0.12"/>
      <stop offset="1" stop-color="#BEF264" stop-opacity="0.34"/>
    </linearGradient>
    <filter id="cyanGlow" x="150" y="218" width="210" height="90" filterUnits="userSpaceOnUse" color-interpolation-filters="sRGB">
      <feGaussianBlur stdDeviation="12" result="blur"/>
      <feColorMatrix in="blur" type="matrix" values="0 0 0 0 0.4039 0 0 0 0 0.9098 0 0 0 0 0.9765 0 0 0 0.9 0"/>
      <feBlend mode="screen" in2="SourceGraphic"/>
    </filter>
    <filter id="softShadow" x="20" y="22" width="472" height="468" filterUnits="userSpaceOnUse" color-interpolation-filters="sRGB">
      <feDropShadow dx="0" dy="18" stdDeviation="24" flood-color="#000000" flood-opacity="0.45"/>
    </filter>
  </defs>

  <rect x="42" y="42" width="428" height="428" rx="118" fill="url(#bg)" filter="url(#softShadow)"/>
  <rect x="43.5" y="43.5" width="425" height="425" rx="116.5" stroke="url(#edge)" stroke-width="3"/>
  <path d="M83 371C96 392 119 404 148 404C194 404 222 374 222 322V116" stroke="url(#stroke)" stroke-width="54" stroke-linecap="round" stroke-linejoin="round"/>
  <path d="M303 116V404M421 116V404M303 258H421" stroke="url(#stroke)" stroke-width="54" stroke-linecap="round" stroke-linejoin="round"/>
  <path d="M232 278H333" stroke="#67E8F9" stroke-width="16" stroke-linecap="round" filter="url(#cyanGlow)"/>
  <circle cx="420" cy="405" r="8" fill="#BEF264" opacity="0.9"/>
</svg>
